<!DOCTYPE svg PUBLIC "-//W3C//DTD SVG 1.1//EN" "http://www.w3.org/Graphics/SVG/1.1/DTD/svg11.dtd">
<!-- Uploaded to: SVG Repo, www.svgrepo.com, Transformed by: SVG Repo Mixer Tools -->
<svg height="800px" width="800px" version="1.1" id="Layer_1" xmlns="http://www.w3.org/2000/svg" xmlns:xlink="http://www.w3.org/1999/xlink" viewBox="0 0 392.598 392.598" xml:space="preserve" fill="#000000">
<g id="SVGRepo_bgCarrier" stroke-width="0"/>
<g id="SVGRepo_tracerCarrier" stroke-linecap="round" stroke-linejoin="round"/>
<g id="SVGRepo_iconCarrier"> <path style="fill:#FFFFFF;" d="M45.156,256.453c0-6.012,4.848-10.925,10.925-10.925s10.925,4.848,10.925,10.925v8.857h16.356v-8.857 c0-6.012,4.848-10.925,10.925-10.925c6.012,0,10.925,4.848,10.925,10.925v8.857h200.857c-9.891-6.206-18.941-13.511-27.022-21.786 H43.733V124.38h21.333c6.012,0,10.925-4.848,10.925-10.925c0-6.012-4.848-10.925-10.925-10.925H43.733V80.226h43.184 c6.012,0,10.925-4.848,10.925-10.925c0-6.012-4.848-10.925-10.925-10.925H43.604V43.442h235.378 c8.145-8.275,17.131-15.58,27.022-21.786H32.743c-6.012,0-10.925,4.848-10.925,10.925v221.867c0,6.012,4.848,10.925,10.925,10.925 h12.412V256.453z"/> <path style="fill:#FFC10D;" d="M43.604,58.505h43.184c6.012,0,10.925,4.848,10.925,10.925c0,6.012-4.848,10.925-10.925,10.925 H43.604v22.303h21.333c6.012,0,10.925,4.848,10.925,10.925c0,6.012-4.784,10.925-10.796,10.925H43.604v119.143h235.378 c-25.212-25.859-40.727-61.091-40.727-100.008S253.77,69.56,278.982,43.636H43.604V58.505z"/> <g> <path style="fill:#FFFFFF;" d="M370.715,24.178c-11.766,4.719-22.432,17.002-30.772,34.069c9.503-4.655,19.846-7.822,30.772-9.051 V24.178z"/> <path style="fill:#FFFFFF;" d="M340.008,228.978c8.275,17.067,18.941,29.285,30.772,34.004v-24.954 C359.79,236.735,349.511,233.568,340.008,228.978z"/> <path style="fill:#FFFFFF;" d="M292.428,61.026c7.046,1.422,14.158,2.651,21.269,3.62c4.267-11.507,9.374-21.786,15.192-30.578 C315.055,40.727,302.772,49.907,292.428,61.026z"/> <path style="fill:#FFFFFF;" d="M287.321,154.44h-26.764c1.616,18.941,7.758,36.525,17.067,51.911 c9.438-2.069,18.941-3.879,28.444-5.301C295.984,187.863,289.261,171.83,287.321,154.44z"/> <path style="fill:#FFFFFF;" d="M292.04,225.681c10.343,11.313,22.885,20.622,36.784,27.345 c-5.947-8.986-11.055-19.394-15.321-31.095C306.263,223.03,299.152,224.323,292.04,225.681z"/> <path style="fill:#FFFFFF;" d="M306.392,85.592c-9.568-1.487-19.071-3.232-28.509-5.301c-9.503,15.515-15.58,33.293-17.39,52.364 h26.764C289.261,115.071,296.113,98.909,306.392,85.592z"/> </g> <g> <path style="fill:#56ACE0;" d="M370.78,91.345c-13.899-0.323-27.798-1.228-41.632-2.715c-3.426,13.511-5.624,28.444-6.4,44.024 h48.032V91.345L370.78,91.345z"/> <path style="fill:#56ACE0;" d="M328.954,197.947c13.899-1.487,27.798-2.392,41.826-2.715V154.44h-48.032 C323.394,169.891,325.592,184.63,328.954,197.947z"/> <path style="fill:#56ACE0;" d="M340.008,228.978c9.438,4.655,19.782,7.822,30.772,9.051v-20.881 c-11.636,0.323-23.402,1.034-35.103,2.133C337.034,222.707,338.457,225.875,340.008,228.978z"/> <path style="fill:#56ACE0;" d="M370.715,49.196c-10.925,1.228-21.269,4.396-30.772,9.051c-1.422,2.909-2.78,5.947-4.073,9.115 c11.572,1.164,23.208,1.875,34.844,2.133L370.715,49.196L370.715,49.196z"/> <path style="fill:#56ACE0;" d="M287.321,132.655h13.511c0.711-16.679,2.909-32.453,6.465-46.933 c-0.323-0.065-0.646-0.065-0.84-0.129C296.242,98.974,289.325,115.071,287.321,132.655z"/> <path style="fill:#56ACE0;" d="M287.321,154.57c2.004,17.39,8.727,33.293,18.747,46.61c0.323-0.129,0.711-0.129,1.099-0.259 c-3.491-14.352-5.624-29.931-6.271-46.352H287.321z"/> <path style="fill:#56ACE0;" d="M196.299,339.459c-49.972,0-89.535,14.933-102.335,31.289h204.541 C285.834,354.392,246.271,339.459,196.299,339.459z"/> </g> <path style="fill:#FFFFFF;" d="M169.406,318.901c8.598-0.84,17.648-1.293,26.893-1.293s18.23,0.453,26.893,1.293V287.16h-53.721 v31.741H169.406z"/> <path style="fill:#194F82;" d="M381.705,0H32.743C14.707,0,0.032,14.675,0.032,32.711v221.737c0,18.036,14.675,32.711,32.711,32.711 H147.62v34.909c-47.709,9.18-79.774,31.741-79.774,59.604c0,6.012,4.848,10.925,10.925,10.925h234.99 c6.012,0,10.925-4.848,10.925-10.925c0-27.798-32.065-50.36-79.774-59.604V287.16H381.64c6.012,0,10.925-4.848,10.925-10.925v-0.129 V11.055v-0.129C392.566,4.848,387.717,0,381.705,0z M93.964,370.747c12.671-16.356,52.299-31.289,102.335-31.289 s89.535,14.933,102.335,31.289H93.964z M21.818,254.448V32.711c0-6.012,4.848-10.925,10.925-10.925h273.261 c-9.891,6.206-18.941,13.511-27.022,21.786c-25.212,25.859-40.727,61.091-40.727,100.008s15.515,74.085,40.727,100.008 c8.145,8.275,17.131,15.58,27.022,21.786H105.212v-8.857c0-6.012-4.848-10.925-10.925-10.925c-6.012,0-10.925,4.848-10.925,10.925 v8.857H67.006v-8.857c0-6.012-4.848-10.925-10.925-10.925s-10.925,4.848-10.925,10.925v8.857H32.743 C26.731,265.374,21.818,260.461,21.818,254.448z M370.78,49.196V69.56c-11.636-0.323-23.273-1.034-34.844-2.133 c1.228-3.168,2.651-6.271,4.073-9.115c8.275-17.067,19.006-29.35,30.772-34.069L370.78,49.196L370.78,49.196z M328.824,253.091 c-13.899-6.788-26.44-16.097-36.784-27.345c7.111-1.422,14.287-2.65,21.463-3.685C317.705,233.568,322.877,244.105,328.824,253.091z M322.747,154.44h48.032v40.792c-13.964,0.323-27.927,1.228-41.826,2.715C325.592,184.695,323.394,169.891,322.747,154.44z M322.747,132.655c0.711-15.709,2.909-30.513,6.4-44.024c13.834,1.487,27.733,2.392,41.632,2.715v41.309H322.747z M307.362,85.786 c-3.556,14.545-5.818,30.19-6.465,46.933h-13.576h-26.764c1.681-19.071,7.887-36.848,17.39-52.364 c9.438,2.069,19.006,3.879,28.509,5.301C306.715,85.721,307.038,85.721,307.362,85.786z M287.257,154.44h13.576 c0.711,16.485,2.844,32.065,6.271,46.352c-0.388,0.065-0.711,0.129-1.099,0.129c-9.503,1.487-19.006,3.232-28.444,5.301 c-9.374-15.451-15.386-33.099-17.067-51.911h26.764V154.44z M340.008,228.978c-1.487-3.103-2.909-6.271-4.331-9.632 c11.636-1.164,23.337-1.875,35.103-2.133v20.881v25.018C358.949,258.263,348.283,246.044,340.008,228.978z M313.697,64.646 c-7.111-1.099-14.222-2.327-21.269-3.62c10.279-11.119,22.626-20.234,36.461-26.958C323.006,42.861,317.899,53.139,313.697,64.646z M223.192,318.901c-8.598-0.84-17.648-1.293-26.893-1.293c-9.244,0-18.23,0.453-26.893,1.293V287.16h53.721v31.741H223.192z"/> </g>
</svg>