<?xml version="1.0" encoding="iso-8859-1"?>
<!-- Uploaded to: SVG Repo, www.svgrepo.com, Generator: SVG Repo Mixer Tools -->
<svg version="1.1" id="Layer_1" xmlns="http://www.w3.org/2000/svg" xmlns:xlink="http://www.w3.org/1999/xlink" 
	 viewBox="0 0 512 512" xml:space="preserve">
<rect x="44.866" y="44.866" style="fill:#00A3D4;" width="422.268" height="232.247"/>
<path style="fill:#7E8488;" d="M256,308.784c11.612,0,21.113,9.501,21.113,21.113S267.612,351.01,256,351.01
	c-11.612,0-21.113-9.501-21.113-21.113S244.388,308.784,256,308.784z"/>
<polygon style="fill:#E7ECED;" points="361.567,461.856 372.124,504.082 139.876,504.082 150.433,461.856 176.825,461.856 
	335.175,461.856 "/>
<rect x="176.825" y="387.959" style="fill:#AFB6BB;" width="158.351" height="73.897"/>
<path style="fill:#E7ECED;" d="M44.866,277.113h422.268h36.948v100.289c0,5.806-4.751,10.557-10.557,10.557H335.175H176.825H18.474
	c-5.806,0-10.557-4.751-10.557-10.557V277.113H44.866z M256,308.784c-11.612,0-21.113,9.501-21.113,21.113
	S244.388,351.01,256,351.01c11.612,0,21.113-9.501,21.113-21.113S267.612,308.784,256,308.784z"/>
<path style="fill:#595E62;" d="M504.082,18.474v258.639h-36.948V44.866H44.866v232.247H7.918V18.474
	c0-5.806,4.751-10.557,10.557-10.557h475.052C499.332,7.918,504.082,12.668,504.082,18.474z"/>
<polygon style="fill:#0098D2;" points="44.866,44.866 44.866,277.113 97.649,277.113 329.897,44.866 "/>
<rect x="176.825" y="387.959" style="fill:#9EA5AA;" width="158.351" height="36.948"/>
<g>
	<polygon style="fill:#FFFFFF;" points="89.732,176.825 73.897,176.825 73.897,79.175 129.32,79.175 129.32,95.01 89.732,95.01 	"/>
	<rect x="73.897" y="192.66" style="fill:#FFFFFF;" width="15.835" height="21.113"/>
	<polygon style="fill:#FFFFFF;" points="438.103,248.082 382.68,248.082 382.68,232.247 422.268,232.247 422.268,203.217 
		438.103,203.217 	"/>
</g>
<rect x="192.66" y="171.546" style="fill:#FDB51E;" width="31.67" height="105.567"/>
<rect x="160.99" y="171.546" style="fill:#FFD311;" width="31.67" height="105.567"/>
<polygon style="fill:#E7ECED;" points="192.66,97.649 224.33,171.546 192.66,171.546 160.99,171.546 "/>
<polygon style="fill:#FFD311;" points="256,234.887 256,182.103 256,129.32 256,87.093 351.01,87.093 351.01,277.113 256,277.113 
	"/>
<rect x="314.062" y="87.093" style="fill:#FDB51E;" width="36.948" height="190.021"/>
<path d="M256,300.866c-16.007,0-29.031,13.024-29.031,29.031c0,16.007,13.024,29.031,29.031,29.031
	c16.007,0,29.031-13.024,29.031-29.031C285.031,313.89,272.007,300.866,256,300.866z M256,343.093
	c-7.277,0-13.196-5.919-13.196-13.196s5.919-13.196,13.196-13.196c7.277,0,13.196,5.919,13.196,13.196S263.277,343.093,256,343.093z
	"/>
<path d="M493.526,0H18.474C8.288,0,0,8.288,0,18.474v358.928c0,10.186,8.288,18.474,18.474,18.474h150.433v58.062h-24.655
	L129.737,512h252.528l-14.515-58.062h-24.656v-58.062h150.433c10.186,0,18.474-8.288,18.474-18.474V18.474
	C512,8.288,503.712,0,493.526,0z M18.474,15.835h475.052c1.43,0,2.639,1.209,2.639,2.639v250.722h-21.113V36.948H36.948v232.247
	H15.835V18.474C15.835,17.044,17.044,15.835,18.474,15.835z M263.918,242.804h29.031v-15.835h-29.031v-36.948h44.866v-15.835
	h-44.866v-36.948h29.031v-15.835h-29.031V95.01h79.175v174.186h-79.175V242.804z M248.082,79.175v190.021h-15.835v-99.274
	L192.66,77.551l-39.588,92.371v99.274H52.784V52.784h406.433v216.412H358.928V79.175H248.082z M172.997,163.629l19.663-45.88
	l19.663,45.88H172.997z M168.907,179.464h15.835v89.732h-15.835V179.464z M200.577,179.464h15.835v89.732h-15.835V179.464z
	 M361.984,496.165H150.016l6.598-26.392h198.771L361.984,496.165z M327.258,453.938H184.742v-58.062h142.515V453.938z
	 M493.526,380.041H18.474c-1.43,0-2.639-1.209-2.639-2.639v-92.371h480.33v92.371C496.165,378.833,494.956,380.041,493.526,380.041z
	"/>
</svg>