<?xml version="1.0" encoding="iso-8859-1"?>
<!-- Uploaded to: SVG Repo, www.svgrepo.com, Generator: SVG Repo Mixer Tools -->
<svg version="1.1" id="Layer_1" xmlns="http://www.w3.org/2000/svg" xmlns:xlink="http://www.w3.org/1999/xlink" 
	 viewBox="0 0 512 512" xml:space="preserve">
<path style="fill:#D3D3D5;" d="M367.165,503.983H67.875V8.017h376.251v419.006C444.125,469.526,409.668,503.983,367.165,503.983z"/>
<path style="fill:#BDBDC0;" d="M384.267,486.881H84.977V8.017H67.875v495.967h299.29c25.617,0,48.296-12.527,62.285-31.777
	C416.759,481.428,401.155,486.881,384.267,486.881z"/>
<path style="fill:#7A7C82;" d="M367.165,281.653H102.079V76.426h307.841v162.472C409.921,262.511,390.778,281.653,367.165,281.653z"
	/>
<rect x="102.079" y="76.426" style="fill:#64666D;" width="17.102" height="205.228"/>
<rect x="179.04" y="102.079" style="fill:#A6DE64;" width="153.921" height="153.921"/>
<g>
	<polygon style="fill:#7DBB34;" points="179.04,102.079 179.04,245.311 322.271,102.079 	"/>
	<polygon style="fill:#7DBB34;" points="274.527,256 332.96,197.567 332.96,141.984 218.945,256 	"/>
	<polygon style="fill:#7DBB34;" points="332.96,256 332.96,217.52 294.48,256 	"/>
</g>
<polygon style="fill:#45CAE0;" points="204.693,350.063 170.489,350.063 170.489,315.858 136.284,315.858 136.284,350.063 
	102.079,350.063 102.079,384.267 136.284,384.267 136.284,418.472 170.489,418.472 170.489,384.267 204.693,384.267 "/>
<g>
	<circle style="fill:#FD5E95;" cx="315.858" cy="392.818" r="25.653"/>
	<circle style="fill:#FD5E95;" cx="384.267" cy="341.511" r="25.653"/>
</g>
<path d="M444.125,0H67.875c-4.427,0-8.017,3.589-8.017,8.017V179.04c0,4.427,3.589,8.017,8.017,8.017s8.017-3.589,8.017-8.017
	V58.789h360.217v368.234c0,38.015-30.928,68.944-68.944,68.944H75.891V213.244c0-4.427-3.589-8.017-8.017-8.017
	s-8.017,3.589-8.017,8.017v290.739c0,4.427,3.589,8.017,8.017,8.017h299.29c46.857,0,84.977-38.121,84.977-84.977V8.017
	C452.142,3.589,448.554,0,444.125,0z M75.891,42.756V16.033h360.217v26.722H75.891z"/>
<path d="M409.921,68.409H102.079c-4.427,0-8.017,3.589-8.017,8.017v205.228c0,4.427,3.589,8.017,8.017,8.017h265.086
	c27.995,0,50.772-22.777,50.772-50.772V76.426C417.937,71.999,414.349,68.409,409.921,68.409z M401.904,238.898
	c0,19.155-15.583,34.739-34.739,34.739H110.096V84.443h291.808V238.898z"/>
<path d="M179.04,264.017H332.96c4.428,0,8.017-3.589,8.017-8.017v-76.96c0-4.427-3.588-8.017-8.017-8.017
	c-4.428,0-8.017,3.589-8.017,8.017v68.944H187.056V110.096h137.887v34.739c0,4.427,3.588,8.017,8.017,8.017
	c4.428,0,8.017-3.589,8.017-8.017v-42.756c0-4.427-3.588-8.017-8.017-8.017H179.04c-4.427,0-8.017,3.589-8.017,8.017V256
	C171.023,260.427,174.612,264.017,179.04,264.017z"/>
<path d="M94.063,384.267c0,4.427,3.589,8.017,8.017,8.017h26.188v26.188c0,4.427,3.589,8.017,8.017,8.017h34.205
	c4.427,0,8.017-3.589,8.017-8.017v-26.188h26.188c4.427,0,8.017-3.589,8.017-8.017v-34.205c0-4.427-3.589-8.017-8.017-8.017h-26.188
	v-26.188c0-4.427-3.589-8.017-8.017-8.017h-34.205c-4.427,0-8.017,3.589-8.017,8.017v26.188h-26.188
	c-4.427,0-8.017,3.589-8.017,8.017V384.267z M110.096,358.079h26.188c4.427,0,8.017-3.589,8.017-8.017v-26.188h18.171v26.188
	c0,4.427,3.589,8.017,8.017,8.017h26.188v18.171h-26.188c-4.427,0-8.017,3.589-8.017,8.017v26.188h-18.171v-26.188
	c0-4.427-3.589-8.017-8.017-8.017h-26.188V358.079z"/>
<path d="M315.858,426.489c18.566,0,33.67-15.105,33.67-33.67c0-18.566-15.105-33.67-33.67-33.67c-18.566,0-33.67,15.105-33.67,33.67
	C282.188,411.384,297.292,426.489,315.858,426.489z M315.858,375.182c9.725,0,17.637,7.912,17.637,17.637
	c0,9.725-7.912,17.637-17.637,17.637c-9.725,0-17.637-7.912-17.637-17.637C298.221,383.094,306.133,375.182,315.858,375.182z"/>
<path d="M384.267,375.182c18.566,0,33.67-15.105,33.67-33.67c0-18.566-15.105-33.67-33.67-33.67c-18.566,0-33.67,15.105-33.67,33.67
	C350.597,360.077,365.702,375.182,384.267,375.182z M384.267,323.875c9.725,0,17.637,7.912,17.637,17.637
	c0,9.725-7.912,17.637-17.637,17.637c-9.725,0-17.637-7.912-17.637-17.637C366.63,331.787,374.542,323.875,384.267,323.875z"/>
<path d="M409.921,426.489c7.01,0,10.608-8.747,5.669-13.685l-17.102-17.102c-3.132-3.131-8.207-3.131-11.338,0
	s-3.131,8.207,0,11.337l17.102,17.102C405.817,425.706,407.869,426.489,409.921,426.489z"/>
<path d="M392.818,443.591c7.01,0,10.608-8.747,5.669-13.685l-17.102-17.102c-3.132-3.131-8.207-3.131-11.338,0
	s-3.131,8.207,0,11.337l17.102,17.102C388.715,442.808,390.767,443.591,392.818,443.591z"/>
<path d="M375.716,460.693c7.01,0,10.608-8.747,5.669-13.685l-17.102-17.102c-3.132-3.131-8.207-3.131-11.338,0
	s-3.131,8.207,0,11.337l17.102,17.102C371.613,459.911,373.665,460.693,375.716,460.693z"/>
<path d="M352.944,475.447c3.261,3.26,8.766,3.041,11.764-0.46c2.686-3.137,2.493-7.959-0.425-10.877l-17.102-17.102
	c-3.132-3.131-8.207-3.131-11.338,0c-3.131,3.131-3.131,8.207,0,11.337L352.944,475.447z"/>
<path d="M224.678,447.008l-17.102,17.102c-2.919,2.918-3.113,7.74-0.426,10.877c2.998,3.501,8.502,3.721,11.763,0.46l17.102-17.102
	c3.131-3.131,3.131-8.207,0-11.337C232.885,443.877,227.808,443.877,224.678,447.008z"/>
<path d="M275.984,447.008l-17.102,17.102c-2.918,2.918-3.113,7.74-0.425,10.877c2.998,3.502,8.503,3.72,11.764,0.46l17.102-17.102
	c3.131-3.131,3.131-8.207,0-11.337C284.191,443.877,279.116,443.877,275.984,447.008z"/>
</svg>