<?xml version="1.0" encoding="iso-8859-1"?>
<!-- Uploaded to: SVG Repo, www.svgrepo.com, Generator: SVG Repo Mixer Tools -->
<svg version="1.1" id="Layer_1" xmlns="http://www.w3.org/2000/svg" xmlns:xlink="http://www.w3.org/1999/xlink" 
	 viewBox="0 0 512 512" xml:space="preserve">
<path style="fill:#FBB03B;" d="M304.028,492.139H103.91v-96.057h200.118c26.525,0,48.028,21.503,48.028,48.028l0,0
	C352.056,470.636,330.553,492.139,304.028,492.139z"/>
<circle style="fill:#6EC0BB;" cx="239.992" cy="444.109" r="24.014"/>
<path style="fill:#F15A24;" d="M304.028,395.798h-48.028c26.525,0,48.028,21.645,48.028,48.17c0,26.525-21.503,48.17-48.028,48.17
	h48.028c26.525,0,48.028-21.645,48.028-48.17S330.553,395.798,304.028,395.798z"/>
<rect x="7.854" y="19.861" style="fill:#84DCCF;" width="496.289" height="312.185"/>
<g>
	<polygon style="fill:#027EA8;" points="151.938,332.045 119.92,332.045 312.033,19.861 344.051,19.861 	"/>
	<polygon style="fill:#027EA8;" points="191.962,332.045 175.953,332.045 368.065,19.861 384.075,19.861 	"/>
	<polygon style="fill:#027EA8;" points="95.906,332.045 7.854,332.045 7.854,19.861 288.019,19.861 	"/>
</g>
<rect x="7.854" y="300.028" style="fill:#FBB03B;" width="496.289" height="32.019"/>
<g>
	<rect x="416.222" y="292.132" style="fill:#F15A24;" width="15.708" height="15.708"/>
	<rect x="440.307" y="292.132" style="fill:#F15A24;" width="15.708" height="15.708"/>
	<rect x="464.392" y="292.132" style="fill:#F15A24;" width="15.708" height="15.708"/>
</g>
<path d="M512,12.007H0v327.891h55.988v24.484h15.708v-24.484h368.607v24.484h15.708v-24.484h55.988V12.007H512z M496.292,324.191
	H15.708v-16.356H400.51v-15.708H15.708V27.715h480.585V324.191z"/>
<path d="M304.028,499.993H96.057V388.228h207.972c30.813,0,55.883,25.068,55.883,55.883S334.842,499.993,304.028,499.993z
	 M111.764,484.285h192.264c22.152,0,40.175-18.022,40.175-40.174c0-22.152-18.022-40.175-40.175-40.175H111.764V484.285z"/>
<g>
	<rect x="128.248" y="435.595" style="fill:#FFFFFF;" width="15.708" height="16.755"/>
	<rect x="128.248" y="459.68" style="fill:#FFFFFF;" width="15.708" height="16.755"/>
	<rect x="152.333" y="435.595" style="fill:#FFFFFF;" width="15.708" height="16.755"/>
	<rect x="152.333" y="459.68" style="fill:#FFFFFF;" width="15.708" height="16.755"/>
	<rect x="128.248" y="412.557" style="fill:#FFFFFF;" width="15.708" height="15.708"/>
	<rect x="152.333" y="412.557" style="fill:#FFFFFF;" width="15.708" height="15.708"/>
	<rect x="176.418" y="435.595" style="fill:#FFFFFF;" width="15.708" height="16.755"/>
</g>
<g>
	<rect x="176.418" y="459.68" style="fill:#025F7E;" width="15.708" height="16.755"/>
	<rect x="176.418" y="412.557" style="fill:#025F7E;" width="15.708" height="15.708"/>
</g>
<path d="M239.99,475.979c-17.572,0-31.868-14.296-31.868-31.868c0-17.572,14.296-31.868,31.868-31.868s31.868,14.296,31.868,31.868
	C271.858,461.683,257.562,475.979,239.99,475.979z M239.99,427.951c-8.91,0-16.16,7.25-16.16,16.16c0,8.91,7.25,16.16,16.16,16.16
	c8.91,0,16.16-7.25,16.16-16.16C256.15,435.2,248.902,427.951,239.99,427.951z"/>
<rect x="231.919" y="435.595" style="fill:#027EA8;" width="15.708" height="16.755"/>
<rect x="280.089" y="412.557" style="fill:#FFFFFF;" width="15.708" height="15.708"/>
<rect x="280.089" y="435.595" style="fill:#027EA8;" width="15.708" height="40.84"/>
<g>
	<polygon style="fill:#FFFFFF;" points="47.611,107.824 31.903,107.824 31.903,43.946 183.744,43.946 183.744,59.654 47.611,59.654 
			"/>
	<rect x="199.456" y="43.946" style="fill:#FFFFFF;" width="24.085" height="15.708"/>
</g>
</svg>