<?xml version="1.0" encoding="iso-8859-1"?>
<!-- Uploaded to: SVG Repo, www.svgrepo.com, Generator: SVG Repo Mixer Tools -->
<svg version="1.1" id="Layer_1" xmlns="http://www.w3.org/2000/svg" xmlns:xlink="http://www.w3.org/1999/xlink" 
	 viewBox="0 0 392.533 392.533" xml:space="preserve">
<path style="fill:#FFC10D;" d="M359.822,94.937H32.711c-6.012,0-10.925,4.848-10.925,10.925v240.614
	c0,6.012,4.848,10.925,10.925,10.925h327.111c6.012,0,10.925-4.848,10.925-10.925V105.797
	C370.747,99.85,365.834,94.937,359.822,94.937z"/>
<rect x="65.422" y="138.573" style="fill:#FFFFFF;" width="175.58" height="175.257"/>
<g>
	<path style="fill:#56ACE0;" d="M318.384,252.157c-8.598,0-15.58,7.046-15.58,15.58c0,8.598,7.046,15.58,15.58,15.58
		c8.533,0,15.58-7.046,15.58-15.58S326.917,252.157,318.384,252.157z"/>
	<path style="fill:#56ACE0;" d="M87.208,160.359v32.582h45.253c6.012,0,10.925,4.848,10.925,10.925
		c0,6.077-4.848,10.925-10.925,10.925H87.208v21.786h25.988c6.012,0,10.925,4.848,10.925,10.925c0,6.012-4.848,10.925-10.925,10.925
		H87.208v33.552h132.008v-131.62H87.208z"/>
</g>
<g>
	<path style="fill:#194F82;" d="M318.384,230.371c-20.622,0-37.43,16.743-37.43,37.43s16.743,37.43,37.43,37.43
		c20.687,0,37.43-16.743,37.43-37.43C355.75,247.179,339.006,230.371,318.384,230.371z M318.384,283.381
		c-8.598,0-15.58-7.046-15.58-15.58c0-8.598,7.046-15.58,15.58-15.58c8.533,0,15.58,7.046,15.58,15.58
		C333.964,276.335,326.917,283.381,318.384,283.381z"/>
	<path style="fill:#194F82;" d="M306.683,150.468h23.337c6.012,0,10.925-4.848,10.925-10.925c0-6.012-4.848-10.925-10.925-10.925
		h-23.337c-6.012,0-10.925,4.848-10.925,10.925C295.822,145.555,300.671,150.468,306.683,150.468z"/>
	<path style="fill:#194F82;" d="M306.683,203.93h23.337c6.012,0,10.925-4.848,10.925-10.925s-4.848-10.925-10.925-10.925h-23.337
		c-6.012,0-10.925,4.848-10.925,10.925S300.671,203.93,306.683,203.93z"/>
	<path style="fill:#194F82;" d="M359.822,73.151H118.885l27.41-48.356c2.909-5.236,1.164-11.895-4.073-14.869
		c-5.236-2.909-11.895-1.164-14.804,4.073l-25.277,44.606L82.295,7.017c-2.133-5.624-8.469-8.404-14.093-6.271
		c-5.624,2.133-8.404,8.469-6.271,14.093l22.432,58.246H32.711C14.675,73.151,0,87.825,0,105.797v240.614
		c0,18.036,14.675,32.711,32.711,32.711h26.182v2.457c0,6.012,4.848,10.925,10.925,10.925s10.925-4.849,10.925-10.925v-2.457H311.79
		v2.457c0,6.012,4.848,10.925,10.925,10.925c6.012,0,10.925-4.849,10.925-10.925v-2.457h26.182
		c18.036,0,32.711-14.675,32.711-32.711V105.797C392.533,87.825,377.859,73.151,359.822,73.151z M370.747,346.541
		c0,6.012-4.848,10.925-10.925,10.925H32.711c-6.012,0-10.925-4.848-10.925-10.925V105.797c0-6.012,4.848-10.925,10.925-10.925
		h327.111c6.012,0,10.925,4.848,10.925,10.925v240.679l0,0V346.541z"/>
	<path style="fill:#194F82;" d="M251.927,116.722H54.562c-6.012,0-10.925,4.848-10.925,10.925V324.69
		c0,6.012,4.848,10.925,10.925,10.925h197.366c6.012,0,10.925-4.849,10.925-10.925V127.583
		C262.788,121.636,257.939,116.722,251.927,116.722z M241.002,313.765H65.422V138.573h175.58V313.765z"/>
</g>
</svg>